<svg width="24" height="24" viewBox="0 0 24 24" xmlns="http://www.w3.org/2000/svg">
  <!-- Whale body -->
  <path d="M4 12c0-4 3-6 8-6s8 2 8 6v2c0 2-1 3-3 3H7c-2 0-3-1-3-3v-2z" fill="currentColor"/>
  <!-- Whale tail -->
  <path d="M2 14l2-2 2 2-2 2z" fill="currentColor"/>
  <!-- Water/wave effect -->
  <path d="M6 16c1 0 2-1 2-2s-1-2-2-2-2 1-2 2 1 2 2 2z" fill="currentColor" opacity="0.7"/>
  <path d="M18 16c1 0 2-1 2-2s-1-2-2-2-2 1-2 2 1 2 2 2z" fill="currentColor" opacity="0.7"/>
  <!-- Eye -->
  <circle cx="14" cy="10" r="1" fill="white"/>
</svg> 